<svg xmlns="http://www.w3.org/2000/svg" viewBox="0 0 563 563">
  <style>
    path {
      fill: #000;
    }
    @media (prefers-color-scheme: dark) {
      path {
        fill: #fff;
      }
    }
  </style>
<path d="M281.25,0c-155.325,0 -281.25,125.916 -281.25,281.25c0,155.334 125.925,281.25 281.25,281.25c155.325,0 281.25,-125.925 281.25,-281.25c0,-155.334 -125.925,-281.25 -281.25,-281.25m83.934,400.106c-19.209,16.425 -46.34,24.628 -81.412,24.628c-35.813,0 -63.994,-8.09 -84.506,-24.262c-20.522,-16.191 -30.778,-38.419 -30.778,-66.722l54.253,0c1.762,12.431 5.222,21.713 10.359,27.872c9.431,11.203 25.566,16.79 48.431,16.79c13.697,0 24.807,-1.462 33.347,-4.434c16.219,-5.662 24.319,-16.172 24.319,-31.547c-0,-8.972 -3.975,-15.928 -11.906,-20.859c-7.95,-4.8 -20.541,-9.047 -37.772,-12.722l-29.447,-6.459c-28.95,-6.413 -48.834,-13.35 -59.653,-20.85c-18.347,-12.554 -27.506,-32.175 -27.506,-58.875c-0,-24.366 8.971,-44.597 26.896,-60.713c17.925,-16.125 44.279,-24.178 79.032,-24.178c29.025,-0 53.756,7.594 74.268,22.791c20.475,15.196 31.219,37.256 32.232,66.168l-54.638,0c-1.003,-16.359 -8.315,-27.984 -21.937,-34.884c-9.085,-4.547 -20.382,-6.834 -33.872,-6.834c-15.019,-0 -26.991,2.953 -35.944,8.859c-8.953,5.906 -13.444,14.147 -13.444,24.731c0,9.722 4.416,16.978 13.257,21.769c5.662,3.206 17.709,6.956 36.14,11.259l47.738,11.26c20.906,4.912 36.6,11.503 47.043,19.734c16.21,12.797 24.319,31.322 24.319,55.547c0,24.853 -9.59,45.506 -28.819,61.931" /></svg>