<svg viewBox="0 0 64 49" xmlns="http://www.w3.org/2000/svg"><path id="a" d="M24.413,0l-0.788,0c-6.2,3.525 -10.925,6.963 -14.175,10.313c-6.3,6.399 -9.45,13.512 -9.45,21.337c0,5.175 1.375,9.288 4.125,12.338c2.85,3.15 6.463,4.725 10.838,4.725c3.55,0 6.437,-1.163 8.662,-3.488c2.225,-2.25 3.338,-5.25 3.338,-9c0,-3.45 -1.113,-6.188 -3.338,-8.212c-2.025,-2.051 -4.512,-3.076 -7.463,-3.076c-0.5,0 -1.012,0.051 -1.537,0.151l-1.65,0.149c-1.025,-0 -1.787,-0.25 -2.288,-0.75l-0.75,-2.437c0,-3.55 1.975,-7.3 5.926,-11.25c2.224,-2.25 5.575,-4.9 10.05,-7.95l-1.5,-2.85m36.562,-0l-0.787,-0c-6.2,3.525 -10.925,6.963 -14.175,10.313c-6.3,6.399 -9.45,13.512 -9.45,21.337c0,5.175 1.375,9.288 4.125,12.338c2.85,3.15 6.45,4.725 10.8,4.725c3.575,0 6.475,-1.163 8.7,-3.488c2.225,-2.25 3.337,-5.25 3.337,-9c0,-3.45 -1.112,-6.188 -3.337,-8.212c-2.025,-2.051 -4.513,-3.076 -7.463,-3.076c-0.5,0 -1.012,0.051 -1.537,0.151l-1.65,0.149c-1.025,-0 -1.788,-0.25 -2.288,-0.75l-0.787,-2.437c0,-3.55 1.987,-7.3 5.962,-11.25c2.225,-2.25 5.575,-4.9 10.05,-7.95l-1.5,-2.85" style="fill-opacity:0.1;fill-rule:nonzero;"/></svg>